<?xml version="1.0" encoding="UTF-8" standalone="no"?>
<!-- Created with Inkscape (http://www.inkscape.org/) -->

<svg
   xmlns:dc="http://purl.org/dc/elements/1.1/"
   xmlns:cc="http://creativecommons.org/ns#"
   xmlns:rdf="http://www.w3.org/1999/02/22-rdf-syntax-ns#"
   xmlns:svg="http://www.w3.org/2000/svg"
   xmlns="http://www.w3.org/2000/svg"
   xmlns:sodipodi="http://sodipodi.sourceforge.net/DTD/sodipodi-0.dtd"
   xmlns:inkscape="http://www.inkscape.org/namespaces/inkscape"
   width="744.09448819"
   height="1052.3622047"
   id="svg2"
   version="1.1"
   inkscape:version="0.48.2 r9819"
   sodipodi:docname="connectordiagrams.svg">
  <defs
     id="defs4">
    <inkscape:perspective
       sodipodi:type="inkscape:persp3d"
       inkscape:vp_x="0 : 526.18109 : 1"
       inkscape:vp_y="0 : 1000 : 0"
       inkscape:vp_z="744.09448 : 526.18109 : 1"
       inkscape:persp3d-origin="372.04724 : 350.78739 : 1"
       id="perspective3805" />
  </defs>
  <sodipodi:namedview
     id="base"
     pagecolor="#ffffff"
     bordercolor="#666666"
     borderopacity="1.0"
     inkscape:pageopacity="0.0"
     inkscape:pageshadow="2"
     inkscape:zoom="0.98994949"
     inkscape:cx="412.9605"
     inkscape:cy="585.79544"
     inkscape:document-units="px"
     inkscape:current-layer="layer1"
     showgrid="false"
     inkscape:window-width="1280"
     inkscape:window-height="1002"
     inkscape:window-x="1272"
     inkscape:window-y="-8"
     inkscape:window-maximized="1" />
  <metadata
     id="metadata7">
    <rdf:RDF>
      <cc:Work
         rdf:about="">
        <dc:format>image/svg+xml</dc:format>
        <dc:type
           rdf:resource="http://purl.org/dc/dcmitype/StillImage" />
        <dc:title></dc:title>
      </cc:Work>
    </rdf:RDF>
  </metadata>
  <g
     inkscape:label="Layer 1"
     inkscape:groupmode="layer"
     id="layer1">
    <rect
       style="fill:#ffffff;fill-opacity:1;stroke:#000000;stroke-opacity:1"
       id="rect3761"
       width="51.012703"
       height="51.012703"
       x="216.67773"
       y="163.93301"
       ry="7.5761442" />
    <rect
       ry="7.5761442"
       y="271.00919"
       x="216.67773"
       height="51.012703"
       width="51.012703"
       id="rect3763"
       style="fill:#ffffff;fill-opacity:1;stroke:#000000;stroke-opacity:1" />
    <rect
       style="fill:#ffffff;fill-opacity:1;stroke:#000000;stroke-opacity:1"
       id="rect3765"
       width="51.012703"
       height="51.012703"
       x="216.67773"
       y="217.4711"
       ry="7.5761442" />
    <rect
       ry="7.5761442"
       y="217.4711"
       x="272.23611"
       height="51.012703"
       width="51.012703"
       id="rect3767"
       style="fill:#ffffff;fill-opacity:1;stroke:#000000;stroke-opacity:1" />
    <rect
       style="fill:#ffffff;fill-opacity:1;stroke:#000000;stroke-opacity:1"
       id="rect3769"
       width="51.012703"
       height="51.012703"
       x="161.11934"
       y="217.4711"
       ry="7.5761442" />
    <g
       transform="translate(10.729155,65.529929)"
       id="g3970">
      <rect
         ry="7.5768671"
         y="433.27692"
         x="401.43262"
         height="51.01757"
         width="50.512493"
         id="rect3972"
         style="fill:#ffffff;fill-opacity:1;stroke:#000000;stroke-width:0.99513263;stroke-opacity:1" />
      <path
         style="fill:#bfbfbf;fill-opacity:1;stroke:#000000;stroke-width:1px;stroke-linecap:butt;stroke-linejoin:miter;stroke-opacity:1"
         d="m 448.34378,434.0668 -55.57269,-13.79814 -32.63393,0.58036 -2.85714,1.25 -1.07143,2.67857 0.17857,27.90179 1.69643,2.49999 1.875,1.20537 45.35714,27.14286 -2.05357,-2.8125 -0.53571,-1.83036 0.80357,-39.10714 1.51786,-2.36609 2.58928,-2.0982 1.78572,-0.71428 z"
         id="path3974"
         inkscape:connector-curvature="0"
         sodipodi:nodetypes="cccccccccccccccc" />
    </g>
    <rect
       ry="7.5768671"
       y="504.98206"
       x="419.33585"
       height="40.406094"
       width="39.143379"
       id="rect3976"
       style="fill:#747474;fill-opacity:1;stroke:none" />
    <g
       id="g3960"
       transform="translate(65.15484,8.8388352)">
      <rect
         style="fill:#ffffff;fill-opacity:1;stroke:#000000;stroke-width:0.99513263;stroke-opacity:1"
         id="rect3962"
         width="50.512493"
         height="51.01757"
         x="401.43262"
         y="433.27692"
         ry="7.5768671" />
      <path
         sodipodi:nodetypes="cccccccccccccccc"
         inkscape:connector-curvature="0"
         id="path3964"
         d="m 448.34378,434.0668 -55.57269,-13.79814 -32.63393,0.58036 -2.85714,1.25 -1.07143,2.67857 0.17857,27.90179 1.69643,2.49999 1.875,1.20537 45.35714,27.14286 -2.05357,-2.8125 -0.53571,-1.83036 0.80357,-39.10714 1.51786,-2.36609 2.58928,-2.0982 1.78572,-0.71428 z"
         style="fill:#bfbfbf;fill-opacity:1;stroke:#000000;stroke-width:1px;stroke-linecap:butt;stroke-linejoin:miter;stroke-opacity:1" />
    </g>
    <rect
       style="fill:#747474;fill-opacity:1;stroke:none"
       id="rect3966"
       width="39.143379"
       height="40.406094"
       x="473.76154"
       y="448.29095"
       ry="7.5768671" />
    <g
       id="g3922"
       transform="translate(11.616755,8.8388344)">
      <rect
         style="fill:#ffffff;fill-opacity:1;stroke:#000000;stroke-width:0.99513263;stroke-opacity:1"
         id="rect3924"
         width="50.512493"
         height="51.01757"
         x="401.43262"
         y="433.27692"
         ry="7.5768671" />
      <path
         sodipodi:nodetypes="cccccccccccccccc"
         inkscape:connector-curvature="0"
         id="path3926"
         d="m 448.34378,434.0668 -55.57269,-13.79814 -32.63393,0.58036 -2.85714,1.25 -1.07143,2.67857 0.17857,27.90179 1.69643,2.49999 1.875,1.20537 45.35714,27.14286 -2.05357,-2.8125 -0.53571,-1.83036 0.80357,-39.10714 1.51786,-2.36609 2.58928,-2.0982 1.78572,-0.71428 z"
         style="fill:#bfbfbf;fill-opacity:1;stroke:#000000;stroke-width:1px;stroke-linecap:butt;stroke-linejoin:miter;stroke-opacity:1" />
    </g>
    <rect
       style="fill:#747474;fill-opacity:1;stroke:none"
       id="rect3940"
       width="39.143379"
       height="40.406094"
       x="420.22345"
       y="448.29095"
       ry="7.5768671" />
    <g
       transform="translate(-41.92133,9.3439115)"
       id="g3950">
      <rect
         ry="7.5768671"
         y="433.27692"
         x="401.43262"
         height="51.01757"
         width="50.512493"
         id="rect3952"
         style="fill:#ffffff;fill-opacity:1;stroke:#000000;stroke-width:0.99513263;stroke-opacity:1" />
      <path
         style="fill:#bfbfbf;fill-opacity:1;stroke:#000000;stroke-width:1px;stroke-linecap:butt;stroke-linejoin:miter;stroke-opacity:1"
         d="m 448.34378,434.0668 -55.57269,-13.79814 -32.63393,0.58036 -2.85714,1.25 -1.07143,2.67857 0.17857,27.90179 1.69643,2.49999 1.875,1.20537 45.35714,27.14286 -2.05357,-2.8125 -0.53571,-1.83036 0.80357,-39.10714 1.51786,-2.36609 2.58928,-2.0982 1.78572,-0.71428 z"
         id="path3954"
         inkscape:connector-curvature="0"
         sodipodi:nodetypes="cccccccccccccccc" />
    </g>
    <rect
       ry="7.5768671"
       y="448.79602"
       x="366.68536"
       height="40.406094"
       width="39.143379"
       id="rect3956"
       style="fill:#747474;fill-opacity:1;stroke:none" />
    <rect
       ry="7.5768671"
       y="388.45139"
       x="418.10013"
       height="48.618572"
       width="50.007496"
       id="rect3982"
       style="fill:#ffffff;fill-opacity:1;stroke:#000000;stroke-width:0.99513263;stroke-opacity:1" />
    <path
       style="fill:#bfbfbf;fill-opacity:1;stroke:#000000;stroke-width:1px;stroke-linecap:butt;stroke-linejoin:miter;stroke-opacity:1"
       d="m 462.61218,388.73621 -66.93689,-0.5399 -21.01719,1.46425 -2.85714,1.25 -1.07143,2.67857 -0.70531,29.66956 1.69643,2.49999 1.875,1.20537 47.88252,9.33892 -2.05357,-2.8125 -0.53571,-1.83036 1.18238,-38.22326 1.51786,-2.36609 2.21047,-1.84566 2.16453,-0.96682 z"
       id="path3984"
       inkscape:connector-curvature="0"
       sodipodi:nodetypes="cccccccccccccccc" />
    <rect
       style="fill:#747474;fill-opacity:1;stroke:none"
       id="rect3986"
       width="39.143379"
       height="40.406094"
       x="424.76913"
       y="392.22748"
       ry="7.5768671" />
  </g>
</svg>
